<svg width="128" height="24" viewBox="0 0 128 24" fill="none" xmlns="http://www.w3.org/2000/svg">
<path d="M95.1549 10.4348C93.6498 10.4348 92.4249 11.6053 92.4249 13.0435C92.4249 14.4862 93.6498 15.6522 95.1549 15.6522C96.6647 15.6522 97.8849 14.4862 97.8849 13.0435C97.8849 11.6053 96.6647 10.4348 95.1549 10.4348Z" fill="#00CE62"/>
<path d="M76.3179 10.4348C74.8128 10.4348 73.5879 11.6053 73.5879 13.0435C73.5879 14.4862 74.8128 15.6522 76.3179 15.6522C77.8277 15.6522 79.0479 14.4862 79.0479 13.0435C79.0479 11.6053 77.8229 10.4348 76.3179 10.4348Z" fill="#00CE62"/>
<path d="M57.4809 10.4348C55.9711 10.4348 54.7509 11.6053 54.7509 13.0435C54.7509 14.4862 55.9711 15.6522 57.4809 15.6522C58.9907 15.6522 60.2109 14.4862 60.2109 13.0435C60.2109 11.6053 58.9859 10.4348 57.4809 10.4348Z" fill="#00CE62"/>
<path d="M125.203 13.8892C125.227 13.6049 125.236 13.316 125.236 13.0271C125.236 6.98357 120.156 2.06802 113.91 2.06802C109.987 2.06802 106.527 4.00764 104.494 6.94689C102.461 4.00764 99.0021 2.06802 95.0783 2.06802C94.7797 2.06802 94.4859 2.07719 94.1874 2.10012C93.1117 0.816202 91.4673 0.00458529 89.6239 0.00458529C86.6621 0.00458529 84.2121 2.1368 83.8141 4.89721C81.8048 3.14559 79.1558 2.06802 76.2461 2.06802C72.3271 2.06802 68.8678 4.00764 66.8348 6.94689C64.8018 4.00764 61.3425 2.06802 57.4235 2.06802C55.3905 2.06802 53.4807 2.59534 51.8316 3.50783C50.9455 1.45357 48.8509 0 46.4056 0H35.5111C32.2697 0.0045854 29.6349 2.55407 29.6349 5.69049C29.6349 8.68476 32.0422 11.1471 35.0846 11.358V18.3141C35.0846 21.4505 37.7194 24 40.9607 24C44.2021 24 46.8369 21.4505 46.8369 18.3141V16.8697C48.4481 21.0241 52.5851 23.9908 57.4282 23.9908C61.3472 23.9908 64.8066 22.0512 66.8395 19.112C68.8725 22.0512 72.3319 23.9908 76.2509 23.9908C80.1699 23.9908 83.6293 22.0512 85.6622 19.112C87.6952 22.0512 91.1545 23.9908 95.0736 23.9908C98.9973 23.9908 102.457 22.0512 104.49 19.112C106.523 22.0512 109.982 23.9908 113.906 23.9908H121.493C124.734 23.9908 127.369 21.4414 127.369 18.3049C127.378 16.5258 126.535 14.9301 125.203 13.8892ZM46.4151 8.32709H43.6903V18.3141C43.6903 19.7723 42.4677 20.9507 40.9655 20.9507C39.4585 20.9507 38.2359 19.7723 38.2359 18.3141V8.32709H35.5111C34.0088 8.32709 32.7862 7.14406 32.7862 5.69049C32.7862 4.23233 34.0088 3.05388 35.5111 3.05388H46.4151C47.9173 3.05388 49.14 4.23233 49.14 5.69049C49.14 7.14406 47.9173 8.32709 46.4151 8.32709ZM57.4329 20.9415C52.9168 20.9415 49.2584 17.4016 49.2584 13.0271C49.2584 8.65724 52.9168 5.11731 57.4329 5.11731C61.949 5.11731 65.6074 8.66183 65.6074 13.0271C65.6074 17.4016 61.9443 20.9415 57.4329 20.9415ZM76.2603 20.9415C71.7442 20.9415 68.0858 17.4016 68.0858 13.0271C68.0858 8.65724 71.7442 5.11731 76.2603 5.11731C80.7765 5.11731 84.4349 8.66183 84.4349 13.0271C84.4349 17.4016 80.7765 20.9415 76.2603 20.9415ZM95.083 20.9415C90.5669 20.9415 86.9085 17.4016 86.9085 13.0271V5.69049C86.9085 4.23233 88.1311 3.05388 89.6334 3.05388C91.0977 3.05388 92.2919 4.17272 92.3535 5.57585C93.2065 5.2778 94.1258 5.11731 95.083 5.11731C99.5991 5.11731 103.258 8.66183 103.258 13.0271C103.262 17.4016 99.6039 20.9415 95.083 20.9415ZM121.502 20.9415H113.915C109.399 20.9415 105.741 17.4016 105.741 13.0271C105.741 8.65724 109.399 5.11731 113.915 5.11731C118.431 5.11731 122.09 8.66183 122.09 13.0271C122.09 13.9534 121.924 14.8475 121.621 15.6729C123.071 15.7325 124.227 16.8835 124.227 18.3049C124.227 19.7585 123.004 20.9415 121.502 20.9415Z" fill="#00CE62"/>
<path d="M113.855 10.4348C112.345 10.4348 111.125 11.6053 111.125 13.0435C111.125 14.4862 112.345 15.6522 113.855 15.6522C115.36 15.6522 116.585 14.4862 116.585 13.0435C116.585 11.6053 115.36 10.4348 113.855 10.4348Z" fill="#00CE62"/>
<g clip-path="url(#clip0_1606_43743)">
<path fill-rule="evenodd" clip-rule="evenodd" d="M25.163 2.41617L25.1641 2.4172C26.4209 3.58389 27.1191 5.13783 27.1133 6.80462L27.1133 6.80562V6.80662C27.1133 8.46337 26.4205 10.0178 25.1577 11.1901L12.2263 23.1999C11.9396 23.4662 11.4708 23.4662 11.184 23.2L1.95558 14.6332C0.692945 13.4611 0 11.9067 0 10.2438C0 8.58079 0.692945 7.02645 1.95558 5.85434C3.21788 4.68255 4.88769 4.0427 6.6703 4.0427C8.37634 4.0427 9.98238 4.63392 11.2273 5.71942L11.7139 6.14369L15.7346 2.41126C16.9969 1.23946 18.6668 0.599609 20.4494 0.599609C22.2313 0.599609 23.9071 1.24495 25.163 2.41617ZM4.25564 12.4264L11.4854 18.9935L21.8885 9.57143L22.3554 9.10834C23.6277 7.94701 23.6278 6.05804 22.3557 4.89663C21.0889 3.73498 19.0284 3.73514 17.7618 4.8971L12.0146 10.2044L9.37938 7.85657C8.11262 6.69494 5.77865 6.94535 4.51211 8.10731C3.24633 9.26857 2.98986 11.2651 4.25564 12.4264Z" fill="#00CE62"/>
</g>
<defs>
<clipPath id="clip0_1606_43743">
<rect width="27.1133" height="24" fill="white"/>
</clipPath>
</defs>
</svg>
